STARTFONT 2.1
COMMENT
COMMENT "@(#)r3Xolfonts:Xol/f12butto.bdf	1.3"
COMMENT
COMMENT        Copyright (c) 1984 AT&T
COMMENT          All Rights Reserved
COMMENT
COMMENT THIS IS UNPUBLISHED PROPRIETARY SOURCE CODE OF AT&T
COMMENT The copyright notice above does not evidence any
COMMENT actual or intended publication of such source code.
COMMENT
COMMENT This font is used by the Xt+ toolkit to build the
COMMENT oblong OPEN LOOK buttons. The shine mark and more
COMMENT arrow are also in here.
COMMENT
COMMENT OPEN LOOK is a trademark of AT&T
COMMENT
FONT f12butto
SIZE 12 66 66
FONTBOUNDINGBOX 10 17 0 0
STARTPROPERTIES 3
Copyright "Copyright (c) 1988 AT&T, Inc."
FONT_ASCENT 17
FONT_DESCENT 0
ENDPROPERTIES
CHARS 65
STARTCHAR ButtonL
ENCODING 1
SWIDTH 909 0
DWIDTH 10 0
BBX 10 17 0 -7
BITMAP
03C0
0C00
3000
4000
4000
8000
8000
8000
8000
8000
4000
4000
3000
1C00
07C0
01C0
0000
ENDCHAR
STARTCHAR ButtonM
ENCODING 2
SWIDTH 909 0
DWIDTH 10 0
BBX 10 17 0 -7
BITMAP
FFC0
0000
0000
0000
0000
0000
0000
0000
0000
0000
0000
0000
0000
0000
FFC0
FFC0
0000
ENDCHAR
STARTCHAR ButtonR
ENCODING 3
SWIDTH 909 0
DWIDTH 10 0
BBX 10 17 0 -7
BITMAP
8000
6000
1800
0400
0600
0200
0300
0300
0300
0300
0700
0600
1E00
7C00
F000
C000
0000
ENDCHAR
STARTCHAR ButtonClearL
ENCODING 4
SWIDTH 909 0
DWIDTH 10 0
BBX 10 17 0 -7
BITMAP
03C0
0C00
31C0
47C0
5FC0
9FC0
BFC0
BFC0
BFC0
9FC0
5FC0
47C0
31C0
1C00
07C0
01C0
0000
ENDCHAR
STARTCHAR ButtonClearM
ENCODING 5
SWIDTH 909 0
DWIDTH 10 0
BBX 10 17 0 -7
BITMAP
FFC0
0000
FFC0
FFC0
FFC0
FFC0
FFC0
FFC0
FFC0
FFC0
FFC0
FFC0
FFC0
0000
FFC0
FFC0
0000
ENDCHAR
STARTCHAR ButtonClearR
ENCODING 6
SWIDTH 909 0
DWIDTH 10 0
BBX 10 17 0 -7
BITMAP
8000
6000
1800
C400
F600
F200
FB00
FB00
FB00
F300
F700
C600
9E00
7C00
F000
C000
0000
ENDCHAR
STARTCHAR ButtonDefaultL
ENCODING 7
SWIDTH 909 0
DWIDTH 10 0
BBX 10 17 0 -7
BITMAP
03C0
0C00
31C0
4600
5800
9000
A000
A000
A000
9000
5800
4600
31C0
1C00
07C0
01C0
0000
ENDCHAR
STARTCHAR ButtonDefaultM
ENCODING 8
SWIDTH 909 0
DWIDTH 10 0
BBX 10 17 0 -7
BITMAP
FFC0
0000
FFC0
0000
0000
0000
0000
0000
0000
0000
0000
0000
FFC0
0000
FFC0
FFC0
0000
ENDCHAR
STARTCHAR ButtonDefaultR
ENCODING 9
SWIDTH 909 0
DWIDTH 10 0
BBX 10 17 0 -7
BITMAP
8000
6000
1800
C400
3600
1200
0B00
0B00
0B00
1300
3700
C600
9E00
7C00
F000
C000
0000
ENDCHAR
STARTCHAR ButtonMaskL
ENCODING 25
SWIDTH 909 0
DWIDTH 10 0
BBX 10 17 0 -7
BITMAP
0000
03C0
0FC0
3FC0
3FC0
7FC0
7FC0
7FC0
7FC0
7FC0
3FC0
3FC0
0FC0
03C0
0000
0000
0000
ENDCHAR
STARTCHAR ButtonMaskM
ENCODING 26
SWIDTH 909 0
DWIDTH 10 0
BBX 10 17 0 -7
BITMAP
0000
FFC0
FFC0
FFC0
FFC0
FFC0
FFC0
FFC0
FFC0
FFC0
FFC0
FFC0
FFC0
FFC0
0000
0000
0000
ENDCHAR
STARTCHAR ButtonMaskR
ENCODING 27
SWIDTH 909 0
DWIDTH 10 0
BBX 10 17 0 -7
BITMAP
0000
8000
E000
F800
F800
FC00
FC00
FC00
FC00
FC00
F800
F800
E000
8000
0000
0000
0000
ENDCHAR
STARTCHAR Button1
ENCODING 34
SWIDTH 90 0
DWIDTH 1 0
BBX 1 17 0 -7
BITMAP
80
00
00
00
00
00
00
00
00
00
00
00
00
00
80
80
00
ENDCHAR
STARTCHAR ButtonClear1
ENCODING 35
SWIDTH 90 0
DWIDTH 1 0
BBX 1 17 0 -7
BITMAP
80
00
80
80
80
80
80
80
80
80
80
80
80
00
80
80
00
ENDCHAR
STARTCHAR ButtonDefault1
ENCODING 36
SWIDTH 90 0
DWIDTH 1 0
BBX 1 17 0 -7
BITMAP
80
00
80
00
00
00
00
00
00
00
00
00
80
00
80
80
00
ENDCHAR
STARTCHAR ButtonMask1
ENCODING 43
SWIDTH 90 0
DWIDTH 1 0
BBX 1 17 0 -7
BITMAP
00
80
80
80
80
80
80
80
80
80
80
80
80
80
00
00
00
ENDCHAR
STARTCHAR ShineMark
ENCODING 31
SWIDTH 909 0
DWIDTH 10 0
BBX 10 17 0 -7
BITMAP
0000
0000
0000
0000
3300
6600
CC00
1800
3300
6600
CC00
0000
0000
0000
0000
0000
0000
ENDCHAR
STARTCHAR Triangle
ENCODING 32
SWIDTH 909 0
DWIDTH 10 0
BBX 10 17 0 -7
BITMAP
0000
0000
0000
0000
0000
8000
C000
E000
C000
8000
0000
0000
0000
0000
0000
0000
0000
ENDCHAR
STARTCHAR StackL
ENCODING 10
SWIDTH 909 0
DWIDTH 10 0
BBX 10 17 0 -7
BITMAP
03C0
0C00
3000
4000
4000
8000
8000
8000
8000
8000
4000
4000
3000
0C00
03C0
0000
0000
ENDCHAR
STARTCHAR StackM
ENCODING 11
SWIDTH 909 0
DWIDTH 10 0
BBX 10 17 0 -7
BITMAP
FFC0
0000
0000
0000
0000
0000
0000
0000
0000
0000
0000
0000
0000
0000
FFC0
0000
FFC0
ENDCHAR
STARTCHAR StackR
ENCODING 12
SWIDTH 909 0
DWIDTH 10 0
BBX 10 17 0 -7
BITMAP
8000
6000
1800
0400
0400
0200
0200
0280
0280
0280
0480
0480
1900
6100
8600
1800
E000
ENDCHAR
STARTCHAR StackClearL
ENCODING 13
SWIDTH 909 0
DWIDTH 10 0
BBX 10 17 0 -7
BITMAP
03C0
0C00
31C0
47C0
5FC0
9FC0
BFC0
BFC0
BFC0
9FC0
5FC0
47C0
31C0
0C00
03C0
0000
0000
ENDCHAR
STARTCHAR StackClearM
ENCODING 14
SWIDTH 909 0
DWIDTH 10 0
BBX 10 17 0 -7
BITMAP
FFC0
0000
FFC0
FFC0
FFC0
FFC0
FFC0
FFC0
FFC0
FFC0
FFC0
FFC0
FFC0
0000
FFC0
0000
FFC0
ENDCHAR
STARTCHAR StackClearR
ENCODING 15
SWIDTH 909 0
DWIDTH 10 0
BBX 10 17 0 -7
BITMAP
8000
6000
1800
C400
F400
F200
FA00
FA80
FA80
F280
F480
C480
1900
6100
8600
1800
E000
ENDCHAR
STARTCHAR StackDefaultL
ENCODING 16
SWIDTH 909 0
DWIDTH 10 0
BBX 10 17 0 -7
BITMAP
03C0
0C00
31C0
4600
5800
9000
A000
A000
A000
9000
5800
4600
31C0
0C00
03C0
0000
0000
ENDCHAR
STARTCHAR StackDefaultM
ENCODING 17
SWIDTH 909 0
DWIDTH 10 0
BBX 10 17 0 -7
BITMAP
FFC0
0000
FFC0
0000
0000
0000
0000
0000
0000
0000
0000
0000
FFC0
0000
FFC0
0000
FFC0
ENDCHAR
STARTCHAR StackDefaultR
ENCODING 18
SWIDTH 909 0
DWIDTH 10 0
BBX 10 17 0 -7
BITMAP
8000
6000
1800
C400
3400
1200
0A00
0A80
0A80
1280
3480
C480
1900
6100
8600
1800
E000
ENDCHAR
STARTCHAR StackMaskL
ENCODING 28
SWIDTH 909 0
DWIDTH 10 0
BBX 10 17 0 -7
BITMAP
0000
03C0
0FC0
3FC0
3FC0
7FC0
7FC0
7FC0
7FC0
7FC0
3FC0
3FC0
0FC0
03C0
0000
0000
0000
ENDCHAR
STARTCHAR StackMaskM
ENCODING 29
SWIDTH 909 0
DWIDTH 10 0
BBX 10 17 0 -7
BITMAP
0000
FFC0
FFC0
FFC0
FFC0
FFC0
FFC0
FFC0
FFC0
FFC0
FFC0
FFC0
FFC0
FFC0
0000
0000
0000
ENDCHAR
STARTCHAR StackMaskR
ENCODING 30
SWIDTH 909 0
DWIDTH 10 0
BBX 10 17 0 -7
BITMAP
0000
8000
E000
F800
F800
FC00
FC00
FC00
FC00
FC00
F800
F800
E000
8000
0000
0000
0000
ENDCHAR
STARTCHAR StackN
ENCODING 19
SWIDTH 909 0
DWIDTH 10 0
BBX 10 17 0 -7
BITMAP
FFC0
0000
0000
0000
0000
0000
0000
0000
0000
0000
0000
0000
0000
0000
FFC0
0000
0000
ENDCHAR
STARTCHAR StackClearN
ENCODING 20
SWIDTH 909 0
DWIDTH 10 0
BBX 10 17 0 -7
BITMAP
FFC0
0000
FFC0
FFC0
FFC0
FFC0
FFC0
FFC0
FFC0
FFC0
FFC0
FFC0
FFC0
0000
FFC0
0000
0000
ENDCHAR
STARTCHAR StackDefaultN
ENCODING 21
SWIDTH 909 0
DWIDTH 10 0
BBX 10 17 0 -7
BITMAP
FFC0
0000
FFC0
0000
0000
0000
0000
0000
0000
0000
0000
0000
FFC0
0000
FFC0
0000
0000
ENDCHAR
STARTCHAR HStackN
ENCODING 22
SWIDTH 909 0
DWIDTH 10 0
BBX 10 17 0 -7
BITMAP
FFC0
0000
0000
0000
0000
0000
0000
0000
0000
0000
0000
0000
0000
0000
FFC0
0000
03C0
ENDCHAR
STARTCHAR HStackClearN
ENCODING 23
SWIDTH 909 0
DWIDTH 10 0
BBX 10 17 0 -7
BITMAP
FFC0
0000
FFC0
FFC0
FFC0
FFC0
FFC0
FFC0
FFC0
FFC0
FFC0
FFC0
FFC0
0000
FFC0
0000
03C0
ENDCHAR
STARTCHAR HStackDefaultN
ENCODING 24
SWIDTH 909 0
DWIDTH 10 0
BBX 10 17 0 -7
BITMAP
FFC0
0000
FFC0
0000
0000
0000
0000
0000
0000
0000
0000
0000
FFC0
0000
FFC0
0000
03C0
ENDCHAR
STARTCHAR HStack1
ENCODING 37
SWIDTH 90 0
DWIDTH 1 0
BBX 1 17 0 -7
BITMAP
80
00
00
00
00
00
00
00
00
00
00
00
00
00
80
00
80
ENDCHAR
STARTCHAR HStackClear1
ENCODING 38
SWIDTH 90 0
DWIDTH 1 0
BBX 1 17 0 -7
BITMAP
80
00
80
80
80
80
80
80
80
80
80
80
80
00
80
00
80
ENDCHAR
STARTCHAR HStackDefault1
ENCODING 39
SWIDTH 90 0
DWIDTH 1 0
BBX 1 17 0 -7
BITMAP
80
00
80
00
00
00
00
00
00
00
00
00
80
00
80
00
80
ENDCHAR
STARTCHAR Stack1
ENCODING 40
SWIDTH 90 0
DWIDTH 1 0
BBX 1 17 0 -7
BITMAP
80
00
00
00
00
00
00
00
00
00
00
00
00
00
80
00
00
ENDCHAR
STARTCHAR StackClear1
ENCODING 41
SWIDTH 90 0
DWIDTH 1 0
BBX 1 17 0 -7
BITMAP
80
00
80
80
80
80
80
80
80
80
80
80
80
00
80
00
00
ENDCHAR
STARTCHAR StackDefault1
ENCODING 42
SWIDTH 90 0
DWIDTH 1 0
BBX 1 17 0 -7
BITMAP
80
00
80
00
00
00
00
00
00
00
00
00
80
00
80
00
00
ENDCHAR
STARTCHAR StackMask1
ENCODING 44
SWIDTH 90 0
DWIDTH 1 0
BBX 1 17 0 -7
BITMAP
00
80
80
80
80
80
80
80
80
80
80
80
80
80
00
00
00
ENDCHAR
STARTCHAR ButtonBlank
ENCODING 33
SWIDTH 909 0
DWIDTH 10 0
BBX 10 11 0 0
BITMAP
0000
0000
0000
0000
0000
0000
0000
0000
0000
0000
0000
ENDCHAR
STARTCHAR ButtonBlank1
ENCODING 45 
SWIDTH 90 0
DWIDTH 1 0
BBX 1 11 0 0
BITMAP
00
00
00
00
00
00
00
00
00
00
00
ENDCHAR
STARTCHAR MenuPullRight
ENCODING 46
SWIDTH 909 0
DWIDTH 10 0
BBX 10 11 0 0
BITMAP
0000
0000
C000
B000
8C00
8200
8C00
B000
C000
0000
0000
ENDCHAR
STARTCHAR MenuPullDown
ENCODING 47
SWIDTH 909 0
DWIDTH 10 0
BBX 10 11 0 0
BITMAP
0000
0000
FE00
8200
4400
4400
2800
2800
1000
0000
0000
ENDCHAR
STARTCHAR MenuButtonDefaultL
ENCODING 48 
SWIDTH 909 0
DWIDTH 10 0
BBX 10 11 0 0
BITMAP
07C0
1800
6000
4000
8000
8000
8000
4000
6000
1800
07C0
ENDCHAR
STARTCHAR MenuButtonDefaultM
ENCODING 49 
SWIDTH 909 0
DWIDTH 10 0
BBX 10 11 0 0
BITMAP
FFC0
0000
0000
0000
0000
0000
0000
0000
0000
0000
FFC0
ENDCHAR
STARTCHAR MenuButtonDefaultR
ENCODING 50
SWIDTH 909 0
DWIDTH 10 0
BBX 10 11 0 0
BITMAP
F800
0600
0180
0080
0040
0040
0040
0080
0180
0600
F800
ENDCHAR
STARTCHAR MenuButtonDefault1
ENCODING 51
SWIDTH 90 0
DWIDTH 1 0
BBX 1 11 0 0
BITMAP
FF
00
00
00
00
00
00
00
00
00
FF
ENDCHAR
STARTCHAR MenuButtonSetL
ENCODING 52 
SWIDTH 909 0
DWIDTH 10 0
BBX 10 11 0 0
BITMAP
07C0
1FC0
7FC0
7FC0
FFC0
FFC0
FFC0
7FC0
7FC0
1FC0
07C0
ENDCHAR
STARTCHAR MenuButtonSetM
ENCODING 53
SWIDTH 909 0
DWIDTH 10 0
BBX 10 11 0 0
BITMAP
FFF0
FFF0
FFF0
FFF0
FFF0
FFF0
FFF0
FFF0
FFF0
FFF0
FFF0
ENDCHAR
STARTCHAR MenuButtonSetR
ENCODING 54
SWIDTH 909 0
DWIDTH 10 0
BBX 10 11 0 0
BITMAP
F800
FE00
FF80
FF80
FFC0
FFC0
FFC0
FF80
FF80
FE00
F800
ENDCHAR
STARTCHAR MenuButtonSet1
ENCODING 55
SWIDTH 90 0
DWIDTH 1 0
BBX 1 11 0 0
BITMAP
FF
FF
FF
FF
FF
FF
FF
FF
FF
FF
FF
ENDCHAR
STARTCHAR AbbMenuButtonL
ENCODING 56
SWIDTH 727 0
DWIDTH 8 0
BBX 8 12 0 0
BITMAP
7F00
8000
8000
9F00
8800
8400
8200
8100
8000
8000
7F00
3F00
ENDCHAR
STARTCHAR AbbMenuButtonR
ENCODING 57
SWIDTH 727 0
DWIDTH 8 0
BBX 8 12 0 0
BITMAP
FC00
0200
0300
F300
2300
4300
8300
0300
0300
0300
FF00
FE00
ENDCHAR
STARTCHAR AbbMenuButtonSetL
ENCODING 58
SWIDTH 727 0
DWIDTH 8 0
BBX 8 12 0 0
BITMAP
7F00
8000
BF00
A000
B700
BB00
BD00
BE00
BF00
8000
7F00
3F00
ENDCHAR
STARTCHAR AbbMenuButtonSetR
ENCODING 59
SWIDTH 727 0
DWIDTH 8 0
BBX 8 12 0 0
BITMAP
FC00
0200
FB00
0B00
DB00
BB00
7B00
FB00
FB00
0300
FF00
FE00
ENDCHAR
STARTCHAR NonMenuPullRight
ENCODING 60 
SWIDTH 909 0
DWIDTH 10 0
BBX 10 17 0 -7
BITMAP
0000
0000
0000
0000
C000
B000
8C00
8200
8C00
B000
C000
0000
0000
0000
0000
0000
0000
ENDCHAR
STARTCHAR NonMenuPullDown
ENCODING 61
SWIDTH 909 0
DWIDTH 10 0
BBX 10 17 0 -7
BITMAP
0000
0000
0000
0000
FE00
8200
4400
4400
2800
2800
1000
0000
0000
0000
0000
0000
0000
ENDCHAR
STARTCHAR CheckboxL 
ENCODING 62
SWIDTH 727 0
DWIDTH 8 0
BBX 8 11 0 0
BITMAP
0000
FF00
8000
8000
8000
8000
8000
8000
8000
8000
FF00
ENDCHAR
STARTCHAR CheckboxR 
ENCODING 63
SWIDTH 727 0
DWIDTH 8 0
BBX 8 11 0 0
BITMAP
0000
F000
1000
1000
1000
1000
1000
1000
1000
1000
F000
ENDCHAR
STARTCHAR CheckboxSetL
ENCODING 64
SWIDTH 727 0
DWIDTH 8 0
BBX 8 11 0 0
BITMAP
FF00
8000
8000
8000
9000
B800
9D00
8F00
8600
8200
FF00
ENDCHAR
STARTCHAR CheckboxSetR
ENCODING 65
SWIDTH 727 0
DWIDTH 8 0
BBX 8 11 0 0
BITMAP
E600
0C00
1800
3000
6000
C000
9000
1000
1000
1000
F000
ENDCHAR
ENDFONT
